<svg width="32" height="32" viewBox="0 0 32 32" fill="none" xmlns="http://www.w3.org/2000/svg">
<path d="M24 30H4C3.46973 29.9995 2.96133 29.7886 2.58637 29.4136C2.21141 29.0387 2.00053 28.5303 2 28V22C2.00053 21.4697 2.21141 20.9613 2.58637 20.5864C2.96133 20.2114 3.46973 20.0005 4 20H24C24.5303 20.0005 25.0387 20.2114 25.4136 20.5864C25.7886 20.9613 25.9995 21.4697 26 22V28C25.9995 28.5303 25.7886 29.0387 25.4136 29.4136C25.0387 29.7886 24.5303 29.9995 24 30ZM4 22H3.998L4 28H24V22H4ZM30 3.41L28.59 2L25 5.59L21.41 2L20 3.41L23.59 7L20 10.59L21.41 12L25 8.41L28.59 12L30 10.59L26.41 7L30 3.41Z" fill="#444444"/>
<path d="M4 14V8H18V6H4C3.46973 6.00053 2.96133 6.21141 2.58637 6.58637C2.21141 6.96133 2.00053 7.46973 2 8V14C2.00053 14.5303 2.21141 15.0387 2.58637 15.4136C2.96133 15.7886 3.46973 15.9995 4 16H26V14H4Z" fill="#444444"/>
</svg>
