<svg width="18" height="21" viewBox="0 0 18 21" fill="none" xmlns="http://www.w3.org/2000/svg">
<path d="M14.7053 7H14.2053V6.5V5C14.206 3.61733 13.6735 2.43833 12.6078 1.463C11.542 0.487667 10.2533 0 8.74172 0L14.7053 7ZM14.7053 7H15.298C15.899 7 16.4137 7.196 16.842 7.588C17.2704 7.98 17.4842 8.45067 17.4834 9V19C17.4834 19.55 17.2693 20.021 16.8409 20.413C16.4126 20.805 15.8983 21.0007 15.298 21H2.18543C1.58444 21 1.06977 20.804 0.641426 20.412C0.213081 20.02 -0.000726622 19.5493 0 19L14.7053 7ZM10.6233 15.7809C10.0994 16.2603 9.46317 16.4999 8.74228 16.5L10.6233 15.7809ZM10.6233 15.7809C11.1486 15.3001 11.4281 14.698 11.4272 13.9993M10.6233 15.7809L11.4272 13.9993M11.4272 13.9993C11.427 13.3007 11.1474 12.6988 10.6222 12.2181M11.4272 13.9993C11.4272 13.9996 11.4272 13.9998 11.4272 14H10.9272L10.6222 12.2181M10.6222 12.2181C10.0983 11.7387 9.46224 11.4993 8.74172 11.5L10.6222 12.2181ZM6.05629 14.0003C6.05547 13.3018 6.3349 12.6998 6.86016 12.2191C7.38405 11.7397 8.02028 11.5001 8.74117 11.5L8.74172 16.5C8.02121 16.5007 7.38517 16.2613 6.86125 15.7819C6.33598 15.3012 6.05637 14.699 6.05629 14.0003ZM6.05629 14.0003C6.05629 14.0002 6.05629 14.0001 6.05629 14H6.55629L6.05629 14.0007C6.05629 14.0005 6.05629 14.0004 6.05629 14.0003ZM0.500002 19.0007V19V9C0.500002 8.59887 0.648731 8.25909 0.980077 7.95586C1.31272 7.65144 1.70509 7.49947 2.18488 7.5H2.18543H3.27815H3.77815V7V5C3.77815 3.76385 4.2469 2.71622 5.21435 1.83086C6.18333 0.944088 7.34938 0.499386 8.7415 0.500001H8.74172C10.1347 0.500001 11.3012 0.945078 12.2702 1.83186C13.2376 2.71722 13.706 3.76442 13.7053 4.99974V5V7V7.5H14.2053H15.298C15.7789 7.5 16.1718 7.65242 16.5045 7.95686C16.8358 8.26008 16.984 8.59931 16.9834 8.99934V9V19C16.9834 19.4011 16.8347 19.7409 16.5034 20.0441C16.1707 20.3486 15.7784 20.5005 15.2986 20.5H15.298H2.18543C1.70456 20.5 1.31165 20.3476 0.978984 20.0431C0.647647 19.7399 0.499471 19.4007 0.500002 19.0007ZM4.96358 7V7.5H5.46358H12.0199H12.5199V7V5C12.5199 4.02062 12.1379 3.18024 11.4013 2.50615C10.6664 1.8336 9.76989 1.5 8.74172 1.5C7.71356 1.5 6.81705 1.8336 6.08215 2.50615C5.34555 3.18024 4.96358 4.02062 4.96358 5V7Z" fill="#444444" stroke="#444444"/>
</svg>
