<svg width="19" height="19" viewBox="0 0 19 19" fill="none" xmlns="http://www.w3.org/2000/svg">
<path d="M9.5 0C10.7598 0 11.968 0.500445 12.8588 1.39124C13.7496 2.28204 14.25 3.49022 14.25 4.75C14.25 6.00978 13.7496 7.21796 12.8588 8.10876C11.968 8.99955 10.7598 9.5 9.5 9.5C8.24022 9.5 7.03204 8.99955 6.14124 8.10876C5.25044 7.21796 4.75 6.00978 4.75 4.75C4.75 3.49022 5.25044 2.28204 6.14124 1.39124C7.03204 0.500445 8.24022 0 9.5 0ZM9.5 11.875C14.7488 11.875 19 14.0006 19 16.625V19H0V16.625C0 14.0006 4.25125 11.875 9.5 11.875Z" fill="#444444"/>
</svg>
